<svg width="76" height="46" viewBox="0 0 76 46" fill="none" xmlns="http://www.w3.org/2000/svg">
<path d="M40.2785 10.5228C36.3518 5.27698 30.0879 1.88196 23.031 1.88196C11.14 1.88196 1.50037 11.5216 1.50037 23.4126C1.50037 35.3036 11.14 44.9432 23.031 44.9432C30.0879 44.9432 36.3518 41.5482 40.2785 36.3024" stroke="#FF8500" stroke-width="1.97505" stroke-linecap="round" stroke-linejoin="round"/>
<path d="M27.1793 23.4137C28.4352 23.6973 29.4277 24.3252 30.157 25.2975C30.9064 26.2495 31.2812 27.3433 31.2812 28.5789C31.2812 30.4019 30.6532 31.83 29.3974 32.863C28.1415 33.8961 26.3792 34.4126 24.1106 34.4126H13.5067V12.992H23.7764C25.964 12.992 27.6756 13.4782 28.9112 14.4505C30.1671 15.4227 30.795 16.79 30.795 18.5523C30.795 19.8081 30.4608 20.8614 29.7923 21.7122C29.1442 22.5427 28.2732 23.1098 27.1793 23.4137ZM19.4619 21.4995H22.4699C23.9688 21.4995 24.7183 20.8817 24.7183 19.6461C24.7183 18.37 23.9688 17.7319 22.4699 17.7319H19.4619V21.4995ZM22.9256 29.612C24.4245 29.612 25.174 28.984 25.174 27.7282C25.174 27.08 24.9715 26.5837 24.5663 26.2394C24.1815 25.895 23.6244 25.7228 22.8952 25.7228H19.4619V29.612H22.9256ZM44.7381 34.4126L40.4843 26.5128H39.8463V34.4126H33.8911V12.992H43.2796C45.0014 12.992 46.4598 13.2959 47.6549 13.9036C48.85 14.491 49.7514 15.3113 50.3591 16.3646C50.9667 17.3977 51.2706 18.5624 51.2706 19.8588C51.2706 21.3172 50.8655 22.6034 50.0552 23.7175C49.2652 24.8113 48.1005 25.5912 46.5611 26.0571L51.3921 34.4126H44.7381ZM39.8463 22.4414H42.7935C43.6037 22.4414 44.2114 22.249 44.6165 21.8641C45.0217 21.4792 45.2242 20.9222 45.2242 20.193C45.2242 19.5043 45.0115 18.9675 44.5862 18.5827C44.181 18.1775 43.5835 17.975 42.7935 17.975H39.8463V22.4414ZM67.5299 30.9185H59.934L58.7794 34.4126H52.5203L60.329 12.992H67.1957L74.9739 34.4126H68.6845L67.5299 30.9185ZM66.0411 26.3609L63.732 19.4334L61.4532 26.3609H66.0411Z" fill="#161515"/>
</svg>
