<svg width="151" height="92" viewBox="0 0 151 92" fill="none" xmlns="http://www.w3.org/2000/svg">
<path d="M80.6788 19.7572C72.7623 9.18142 60.134 2.3369 45.907 2.3369C21.9342 2.3369 2.50036 21.7707 2.50036 45.7436C2.50036 69.7164 21.9342 89.1503 45.907 89.1503C60.134 89.1503 72.7623 82.3058 80.6788 71.73" stroke="#FF8500" stroke-width="3.98179" stroke-linecap="round" stroke-linejoin="round"/>
<path d="M53.7569 45.0693C56.2888 45.641 58.2898 46.9069 59.7599 48.8671C61.2708 50.7864 62.0263 52.9916 62.0263 55.4826C62.0263 59.1579 60.7604 62.0369 58.2285 64.1196C55.6966 66.2023 52.1438 67.2436 47.5701 67.2436H26.1921V24.0588H46.8963C51.3067 24.0588 54.7574 25.0389 57.2484 26.9991C59.7803 28.9592 61.0462 31.7157 61.0462 35.2685C61.0462 37.8004 60.3724 39.9239 59.0248 41.639C57.718 43.3133 55.9621 44.4567 53.7569 45.0693ZM38.1981 41.2102H44.2624C47.2843 41.2102 48.7952 39.9647 48.7952 37.4737C48.7952 34.901 47.2843 33.6146 44.2624 33.6146H38.1981V41.2102ZM45.1812 57.5653C48.2031 57.5653 49.7141 56.2994 49.7141 53.7675C49.7141 52.4607 49.3057 51.4602 48.489 50.766C47.7131 50.0718 46.5901 49.7247 45.1199 49.7247H38.1981V57.5653H45.1812ZM89.156 67.2436L80.5803 51.3173H79.294V67.2436H67.288V24.0588H86.2158C89.6869 24.0588 92.6272 24.6714 95.0365 25.8965C97.4459 27.0807 99.2631 28.7346 100.488 30.8581C101.713 32.9408 102.326 35.2889 102.326 37.9025C102.326 40.8427 101.509 43.4358 99.8757 45.6818C98.283 47.887 95.9349 49.4592 92.8313 50.3985L102.571 67.2436H89.156ZM79.294 43.1091H85.2357C86.8692 43.1091 88.0943 42.7212 88.911 41.9453C89.7278 41.1694 90.1361 40.0464 90.1361 38.5763C90.1361 37.1878 89.7073 36.1056 88.8498 35.3297C88.033 34.513 86.8283 34.1047 85.2357 34.1047H79.294V43.1091ZM135.105 60.1993H119.792L117.464 67.2436H104.845L120.588 24.0588H134.432L150.113 67.2436H137.433L135.105 60.1993ZM132.104 51.011L127.449 37.0449L122.854 51.011H132.104Z" fill="#161515"/>
</svg>
